<svg width="1130" height="857" viewBox="0 0 1130 857" fill="none" xmlns="http://www.w3.org/2000/svg">
<path d="M40 120C40 75.8172 75.8172 40 120 40H1010C1054.18 40 1090 75.8172 1090 120V737C1090 781.183 1054.18 817 1010 817H120C75.8172 817 40 781.183 40 737V120Z" fill="#ECECEC"/>
<g clip-path="url(#clip0_1_2)">
<path d="M809.573 360.659C815.847 354.258 826.153 354.258 832.427 360.659L910.095 439.905L989.341 517.573C995.742 523.847 995.742 534.153 989.341 540.427L910.095 618.095L832.427 697.341C826.153 703.742 815.847 703.742 809.573 697.341L731.905 618.095L652.659 540.427C646.258 534.153 646.258 523.847 652.659 517.573L731.905 439.905L809.573 360.659Z" fill="#F3F3F5"/>
<path d="M810.287 361.358C816.168 355.358 825.832 355.358 831.713 361.358L909.381 440.604L909.389 440.611L909.396 440.619L988.642 518.287C994.642 524.168 994.642 533.832 988.642 539.713L909.396 617.381L909.389 617.389L909.381 617.396L831.713 696.642C825.832 702.642 816.168 702.642 810.287 696.642L732.619 617.396L732.611 617.389L732.604 617.381L653.358 539.713C647.358 533.832 647.358 524.168 653.358 518.287L732.604 440.619L732.611 440.611L732.619 440.604L810.287 361.358Z" stroke="#98A3AE" stroke-opacity="0.48" stroke-width="2"/>
<path d="M723.255 535V523.364H730.511V524.875H725.011V528.057H727.613C728.477 528.057 729.21 528.197 729.812 528.477C730.418 528.758 730.88 529.153 731.198 529.665C731.52 530.176 731.681 530.778 731.681 531.472C731.681 532.165 731.52 532.777 731.198 533.307C730.88 533.837 730.418 534.252 729.812 534.551C729.21 534.85 728.477 535 727.613 535H723.255ZM725.011 533.523H727.613C728.113 533.523 728.535 533.424 728.88 533.227C729.228 533.03 729.492 532.775 729.67 532.46C729.852 532.146 729.942 531.809 729.942 531.449C729.942 530.926 729.742 530.477 729.34 530.102C728.939 529.723 728.363 529.534 727.613 529.534H725.011V533.523ZM732.931 535L732.925 533.528H733.238C733.48 533.528 733.683 533.477 733.846 533.375C734.013 533.269 734.149 533.091 734.255 532.841C734.361 532.591 734.442 532.246 734.499 531.807C734.556 531.364 734.598 530.807 734.624 530.136L734.778 526.273H740.869V535H739.204V527.739H736.352L736.215 530.705C736.181 531.424 736.107 532.053 735.994 532.591C735.884 533.129 735.723 533.578 735.511 533.938C735.299 534.294 735.026 534.561 734.692 534.739C734.359 534.913 733.954 535 733.477 535H732.931ZM746.81 535.176C745.992 535.176 745.278 534.989 744.668 534.614C744.058 534.239 743.585 533.714 743.248 533.04C742.911 532.366 742.742 531.578 742.742 530.676C742.742 529.771 742.911 528.979 743.248 528.301C743.585 527.623 744.058 527.097 744.668 526.722C745.278 526.347 745.992 526.159 746.81 526.159C747.629 526.159 748.343 526.347 748.952 526.722C749.562 527.097 750.036 527.623 750.373 528.301C750.71 528.979 750.879 529.771 750.879 530.676C750.879 531.578 750.71 532.366 750.373 533.04C750.036 533.714 749.562 534.239 748.952 534.614C748.343 534.989 747.629 535.176 746.81 535.176ZM746.816 533.75C747.346 533.75 747.786 533.61 748.134 533.33C748.483 533.049 748.74 532.676 748.907 532.21C749.077 531.744 749.163 531.231 749.163 530.67C749.163 530.114 749.077 529.602 748.907 529.136C748.74 528.667 748.483 528.29 748.134 528.006C747.786 527.722 747.346 527.58 746.816 527.58C746.282 527.58 745.839 527.722 745.487 528.006C745.138 528.29 744.879 528.667 744.708 529.136C744.541 529.602 744.458 530.114 744.458 530.67C744.458 531.231 744.541 531.744 744.708 532.21C744.879 532.676 745.138 533.049 745.487 533.33C745.839 533.61 746.282 533.75 746.816 533.75ZM752.775 535V526.273H754.474V529.932H755.292L758.173 526.273H760.275L756.894 530.517L760.315 535H758.207L755.576 531.511H754.474V535H752.775ZM765.016 537.517V533.528H765.727C765.908 533.362 766.062 533.163 766.187 532.932C766.316 532.701 766.424 532.426 766.511 532.108C766.602 531.79 766.677 531.419 766.738 530.994C766.799 530.566 766.852 530.078 766.897 529.528L767.17 526.273H773.102V533.528H774.442V537.517H772.783V535H766.698V537.517H765.016ZM767.545 533.528H771.442V527.727H768.692L768.511 529.528C768.424 530.445 768.314 531.241 768.181 531.915C768.049 532.585 767.836 533.123 767.545 533.528ZM775.415 535L775.41 533.528H775.722C775.965 533.528 776.167 533.477 776.33 533.375C776.497 533.269 776.633 533.091 776.739 532.841C776.845 532.591 776.927 532.246 776.984 531.807C777.04 531.364 777.082 530.807 777.109 530.136L777.262 526.273H783.353V535H781.688V527.739H778.836L778.7 530.705C778.665 531.424 778.592 532.053 778.478 532.591C778.368 533.129 778.207 533.578 777.995 533.938C777.783 534.294 777.51 534.561 777.177 534.739C776.844 534.913 776.438 535 775.961 535H775.415ZM790.823 535V527.722H788.732C788.236 527.722 787.85 527.837 787.573 528.068C787.297 528.299 787.158 528.602 787.158 528.977C787.158 529.348 787.285 529.648 787.539 529.875C787.797 530.098 788.156 530.21 788.619 530.21H791.317V531.585H788.619C787.975 531.585 787.418 531.479 786.948 531.267C786.482 531.051 786.122 530.746 785.869 530.352C785.619 529.958 785.494 529.492 785.494 528.955C785.494 528.405 785.622 527.932 785.88 527.534C786.141 527.133 786.514 526.822 786.999 526.602C787.488 526.383 788.066 526.273 788.732 526.273H792.42V535H790.823ZM785.096 535L787.556 530.591H789.295L786.835 535H785.096ZM799.989 538.273C799.736 538.273 799.504 538.252 799.296 538.21C799.088 538.172 798.933 538.131 798.83 538.085L799.239 536.693C799.55 536.777 799.826 536.813 800.069 536.801C800.311 536.79 800.525 536.699 800.711 536.528C800.9 536.358 801.067 536.08 801.211 535.693L801.421 535.114L798.228 526.273H800.046L802.256 533.045H802.347L804.558 526.273H806.381L802.785 536.165C802.618 536.619 802.406 537.004 802.148 537.318C801.891 537.636 801.584 537.875 801.228 538.034C800.872 538.193 800.459 538.273 799.989 538.273ZM811.357 535.176C810.513 535.176 809.785 534.985 809.175 534.602C808.569 534.216 808.103 533.684 807.778 533.006C807.452 532.328 807.289 531.551 807.289 530.676C807.289 529.79 807.456 529.008 807.789 528.33C808.122 527.648 808.592 527.116 809.198 526.733C809.804 526.35 810.518 526.159 811.34 526.159C812.003 526.159 812.594 526.282 813.113 526.528C813.632 526.771 814.05 527.112 814.369 527.551C814.691 527.991 814.882 528.504 814.942 529.091H813.289C813.198 528.682 812.99 528.33 812.664 528.034C812.342 527.739 811.91 527.591 811.369 527.591C810.895 527.591 810.48 527.716 810.124 527.966C809.772 528.212 809.497 528.564 809.3 529.023C809.103 529.477 809.005 530.015 809.005 530.636C809.005 531.273 809.102 531.822 809.295 532.284C809.488 532.746 809.761 533.104 810.113 533.358C810.469 533.612 810.888 533.739 811.369 533.739C811.691 533.739 811.982 533.68 812.244 533.562C812.509 533.441 812.73 533.269 812.908 533.045C813.09 532.822 813.217 532.553 813.289 532.239H814.942C814.882 532.803 814.698 533.307 814.391 533.75C814.085 534.193 813.674 534.542 813.158 534.795C812.647 535.049 812.047 535.176 811.357 535.176ZM816.072 535L816.066 533.528H816.379C816.621 533.528 816.824 533.477 816.987 533.375C817.153 533.269 817.29 533.091 817.396 532.841C817.502 532.591 817.583 532.246 817.64 531.807C817.697 531.364 817.738 530.807 817.765 530.136L817.918 526.273H824.009V535H822.344V527.739H819.492L819.356 530.705C819.322 531.424 819.248 532.053 819.134 532.591C819.024 533.129 818.863 533.578 818.651 533.938C818.439 534.294 818.166 534.561 817.833 534.739C817.5 534.913 817.094 535 816.617 535H816.072ZM829.951 535.176C829.133 535.176 828.419 534.989 827.809 534.614C827.199 534.239 826.726 533.714 826.388 533.04C826.051 532.366 825.883 531.578 825.883 530.676C825.883 529.771 826.051 528.979 826.388 528.301C826.726 527.623 827.199 527.097 827.809 526.722C828.419 526.347 829.133 526.159 829.951 526.159C830.769 526.159 831.483 526.347 832.093 526.722C832.703 527.097 833.176 527.623 833.513 528.301C833.851 528.979 834.019 529.771 834.019 530.676C834.019 531.578 833.851 532.366 833.513 533.04C833.176 533.714 832.703 534.239 832.093 534.614C831.483 534.989 830.769 535.176 829.951 535.176ZM829.957 533.75C830.487 533.75 830.926 533.61 831.275 533.33C831.623 533.049 831.881 532.676 832.048 532.21C832.218 531.744 832.303 531.231 832.303 530.67C832.303 530.114 832.218 529.602 832.048 529.136C831.881 528.667 831.623 528.29 831.275 528.006C830.926 527.722 830.487 527.58 829.957 527.58C829.423 527.58 828.979 527.722 828.627 528.006C828.279 528.29 828.019 528.667 827.849 529.136C827.682 529.602 827.599 530.114 827.599 530.67C827.599 531.231 827.682 531.744 827.849 532.21C828.019 532.676 828.279 533.049 828.627 533.33C828.979 533.61 829.423 533.75 829.957 533.75ZM835.915 535V526.273H839.535C840.52 526.273 841.3 526.483 841.876 526.903C842.451 527.32 842.739 527.886 842.739 528.602C842.739 529.114 842.576 529.519 842.251 529.818C841.925 530.117 841.493 530.318 840.955 530.42C841.345 530.466 841.703 530.583 842.029 530.773C842.355 530.958 842.616 531.208 842.813 531.523C843.014 531.837 843.114 532.212 843.114 532.648C843.114 533.11 842.995 533.519 842.756 533.875C842.518 534.227 842.171 534.504 841.717 534.705C841.266 534.902 840.722 535 840.086 535H835.915ZM837.512 533.58H840.086C840.506 533.58 840.836 533.479 841.075 533.278C841.313 533.078 841.433 532.805 841.433 532.46C841.433 532.055 841.313 531.737 841.075 531.506C840.836 531.271 840.506 531.153 840.086 531.153H837.512V533.58ZM837.512 529.909H839.552C839.87 529.909 840.143 529.864 840.37 529.773C840.601 529.682 840.777 529.553 840.898 529.386C841.023 529.216 841.086 529.015 841.086 528.784C841.086 528.447 840.948 528.184 840.671 527.994C840.395 527.805 840.016 527.71 839.535 527.71H837.512V529.909ZM846.643 532.619L850.489 526.273H852.319V535H850.654V528.648L846.825 535H844.978V526.273H846.643V532.619ZM856.268 532.619L860.114 526.273H861.944V535H860.279V528.648L856.45 535H854.603V526.273H856.268V532.619ZM859.387 523.318H860.785C860.785 523.958 860.558 524.479 860.103 524.881C859.652 525.278 859.042 525.477 858.273 525.477C857.508 525.477 856.9 525.278 856.45 524.881C855.999 524.479 855.773 523.958 855.773 523.318H857.165C857.165 523.602 857.249 523.854 857.415 524.074C857.582 524.29 857.868 524.398 858.273 524.398C858.671 524.398 858.955 524.29 859.126 524.074C859.3 523.858 859.387 523.606 859.387 523.318ZM868.462 535V526.273H872.082C873.067 526.273 873.847 526.483 874.423 526.903C874.998 527.32 875.286 527.886 875.286 528.602C875.286 529.114 875.123 529.519 874.798 529.818C874.472 530.117 874.04 530.318 873.502 530.42C873.892 530.466 874.25 530.583 874.576 530.773C874.902 530.958 875.163 531.208 875.36 531.523C875.561 531.837 875.661 532.212 875.661 532.648C875.661 533.11 875.542 533.519 875.303 533.875C875.065 534.227 874.718 534.504 874.263 534.705C873.813 534.902 873.269 535 872.633 535H868.462ZM870.059 533.58H872.633C873.053 533.58 873.383 533.479 873.621 533.278C873.86 533.078 873.979 532.805 873.979 532.46C873.979 532.055 873.86 531.737 873.621 531.506C873.383 531.271 873.053 531.153 872.633 531.153H870.059V533.58ZM870.059 529.909H872.099C872.417 529.909 872.69 529.864 872.917 529.773C873.148 529.682 873.324 529.553 873.445 529.386C873.57 529.216 873.633 529.015 873.633 528.784C873.633 528.447 873.495 528.184 873.218 527.994C872.942 527.805 872.563 527.71 872.082 527.71H870.059V529.909ZM885.515 537.972V523.364H887.214V537.972H885.515ZM885.515 535.176C884.897 535.176 884.335 535.07 883.827 534.858C883.32 534.642 882.882 534.335 882.515 533.938C882.147 533.54 881.863 533.064 881.663 532.511C881.466 531.958 881.367 531.347 881.367 530.676C881.367 529.998 881.466 529.383 881.663 528.83C881.863 528.277 882.147 527.801 882.515 527.403C882.882 527.006 883.32 526.699 883.827 526.483C884.335 526.267 884.897 526.159 885.515 526.159H885.935V535.176H885.515ZM885.515 533.744H885.754V527.591H885.515C885.106 527.591 884.75 527.674 884.447 527.841C884.144 528.004 883.892 528.229 883.691 528.517C883.49 528.801 883.339 529.129 883.237 529.5C883.138 529.871 883.089 530.263 883.089 530.676C883.089 531.229 883.178 531.739 883.356 532.205C883.534 532.667 883.803 533.04 884.163 533.324C884.522 533.604 884.973 533.744 885.515 533.744ZM887.214 535.176H886.788V526.159H887.214C887.831 526.159 888.394 526.267 888.901 526.483C889.409 526.699 889.844 527.006 890.208 527.403C890.576 527.801 890.858 528.277 891.055 528.83C891.255 529.383 891.356 529.998 891.356 530.676C891.356 531.347 891.255 531.958 891.055 532.511C890.858 533.064 890.576 533.54 890.208 533.938C889.844 534.335 889.409 534.642 888.901 534.858C888.394 535.07 887.831 535.176 887.214 535.176ZM887.214 533.744C887.623 533.744 887.979 533.665 888.282 533.506C888.585 533.343 888.837 533.119 889.038 532.835C889.238 532.547 889.388 532.22 889.487 531.852C889.585 531.481 889.634 531.089 889.634 530.676C889.634 530.127 889.545 529.619 889.367 529.153C889.193 528.684 888.926 528.307 888.566 528.023C888.206 527.735 887.755 527.591 887.214 527.591H886.969V533.744H887.214ZM892.556 535L892.55 533.528H892.863C893.105 533.528 893.308 533.477 893.471 533.375C893.638 533.269 893.774 533.091 893.88 532.841C893.986 532.591 894.067 532.246 894.124 531.807C894.181 531.364 894.223 530.807 894.249 530.136L894.403 526.273H900.494V535H898.829V527.739H895.977L895.84 530.705C895.806 531.424 895.732 532.053 895.619 532.591C895.509 533.129 895.348 533.578 895.136 533.938C894.924 534.294 894.651 534.561 894.317 534.739C893.984 534.913 893.579 535 893.102 535H892.556ZM906.435 535.176C905.617 535.176 904.903 534.989 904.293 534.614C903.683 534.239 903.21 533.714 902.873 533.04C902.536 532.366 902.367 531.578 902.367 530.676C902.367 529.771 902.536 528.979 902.873 528.301C903.21 527.623 903.683 527.097 904.293 526.722C904.903 526.347 905.617 526.159 906.435 526.159C907.254 526.159 907.968 526.347 908.577 526.722C909.187 527.097 909.661 527.623 909.998 528.301C910.335 528.979 910.504 529.771 910.504 530.676C910.504 531.578 910.335 532.366 909.998 533.04C909.661 533.714 909.187 534.239 908.577 534.614C907.968 534.989 907.254 535.176 906.435 535.176ZM906.441 533.75C906.971 533.75 907.411 533.61 907.759 533.33C908.108 533.049 908.365 532.676 908.532 532.21C908.702 531.744 908.788 531.231 908.788 530.67C908.788 530.114 908.702 529.602 908.532 529.136C908.365 528.667 908.108 528.29 907.759 528.006C907.411 527.722 906.971 527.58 906.441 527.58C905.907 527.58 905.464 527.722 905.112 528.006C904.763 528.29 904.504 528.667 904.333 529.136C904.166 529.602 904.083 530.114 904.083 530.67C904.083 531.231 904.166 531.744 904.333 532.21C904.504 532.676 904.763 533.049 905.112 533.33C905.464 533.61 905.907 533.75 906.441 533.75ZM913.177 538.273C912.923 538.273 912.692 538.252 912.484 538.21C912.275 538.172 912.12 538.131 912.018 538.085L912.427 536.693C912.737 536.777 913.014 536.813 913.256 536.801C913.499 536.79 913.713 536.699 913.898 536.528C914.088 536.358 914.254 536.08 914.398 535.693L914.609 535.114L911.415 526.273H913.234L915.444 533.045H915.535L917.745 526.273H919.569L915.972 536.165C915.806 536.619 915.594 537.004 915.336 537.318C915.078 537.636 914.772 537.875 914.415 538.034C914.059 538.193 913.647 538.273 913.177 538.273Z" fill="#363E45"/>
</g>
<path d="M351 134.5L337.732 128.34C337.015 127.926 336 128.511 336 129.34V142.66C336 143.489 337.015 144.074 337.732 143.66L351 137.5V134.5ZM497.061 137.061C497.646 136.475 497.646 135.525 497.061 134.939L487.515 125.393C486.929 124.808 485.979 124.808 485.393 125.393C484.808 125.979 484.808 126.929 485.393 127.515L493.879 136L485.393 144.485C484.808 145.071 484.808 146.021 485.393 146.607C485.979 147.192 486.929 147.192 487.515 146.607L497.061 137.061ZM349.5 136V137.5H496V136V134.5H349.5V136Z" fill="#12A17D"/>
<path d="M351 183.5L337.732 177.34C337.015 176.926 336 177.511 336 178.34V191.66C336 192.489 337.015 193.074 337.732 192.66L351 186.5V183.5ZM393 186.5C393.828 186.5 394.5 185.828 394.5 185C394.5 184.172 393.828 183.5 393 183.5V185V186.5ZM439 183.5C438.172 183.5 437.5 184.172 437.5 185C437.5 185.828 438.172 186.5 439 186.5V185V183.5ZM497.061 186.061C497.646 185.475 497.646 184.525 497.061 183.939L487.515 174.393C486.929 173.808 485.979 173.808 485.393 174.393C484.808 174.979 484.808 175.929 485.393 176.515L493.879 185L485.393 193.485C484.808 194.071 484.808 195.021 485.393 195.607C485.979 196.192 486.929 196.192 487.515 195.607L497.061 186.061ZM349.5 185V186.5H393V185V183.5H349.5V185ZM439 185V186.5H496V185V183.5H439V185Z" fill="#12A17D"/>
<path d="M402.702 194.658V189.295H403.591C403.893 189.077 404.17 188.771 404.422 188.374C404.673 187.974 404.888 187.422 405.067 186.719C405.246 186.011 405.374 185.087 405.451 183.945L405.821 178.409H414.483V189.295H415.914V194.645H413.255V191.5H405.361V194.658H402.702ZM406.787 189.295H411.824V180.691H408.314L408.11 183.945C408.054 184.81 407.963 185.577 407.835 186.246C407.711 186.915 407.56 187.501 407.381 188.004C407.206 188.502 407.008 188.933 406.787 189.295ZM419.656 191.5H416.69L421.209 178.409H424.776L429.288 191.5H426.322L423.043 181.401H422.941L419.656 191.5ZM419.47 186.354H426.476V188.515H419.47V186.354Z" fill="#12A17D"/>
<path d="M351 239.5L337.732 233.34C337.015 232.926 336 233.511 336 234.34V247.66C336 248.489 337.015 249.074 337.732 248.66L351 242.5V239.5ZM388.5 242.5C389.328 242.5 390 241.828 390 241C390 240.172 389.328 239.5 388.5 239.5V241V242.5ZM443.5 239.5C442.672 239.5 442 240.172 442 241C442 241.828 442.672 242.5 443.5 242.5V241V239.5ZM497.061 242.061C497.646 241.475 497.646 240.525 497.061 239.939L487.515 230.393C486.929 229.808 485.979 229.808 485.393 230.393C484.808 230.979 484.808 231.929 485.393 232.515L493.879 241L485.393 249.485C484.808 250.071 484.808 251.021 485.393 251.607C485.979 252.192 486.929 252.192 487.515 251.607L497.061 242.061ZM349.5 241V242.5H388.5V241V239.5H349.5V241ZM443.5 241V242.5H496V241V239.5H443.5V241Z" fill="#EC5151"/>
<path d="M399.098 247.5V234.409H401.866V239.81H407.485V234.409H410.246V247.5H407.485V242.092H401.866V247.5H399.098ZM412.33 247.5V234.409H421.151V236.691H415.098V239.81H420.697V242.092H415.098V245.218H421.177V247.5H412.33ZM422.655 236.691V234.409H433.406V236.691H429.399V247.5H426.663V236.691H422.655Z" fill="#EC5151"/>
<g clip-path="url(#clip1_1_2)">
<circle opacity="0.3" cx="173" cy="163" r="27" fill="#12A17D"/>
<circle opacity="0.5" cx="173" cy="163" r="19" fill="#12A17D"/>
<circle cx="173" cy="163" r="11" fill="#12A17D"/>
<g filter="url(#filter0_d_1_2)">
<path d="M173.27 175.28C172.99 174.92 172.64 174.19 172.03 173.28C171.68 172.78 170.82 171.83 170.56 171.34C170.373 171.042 170.318 170.68 170.41 170.34C170.567 169.694 171.18 169.266 171.84 169.34C172.351 169.443 172.82 169.693 173.19 170.06C173.448 170.303 173.686 170.567 173.9 170.85C174.06 171.05 174.1 171.13 174.28 171.36C174.46 171.59 174.58 171.82 174.49 171.48C174.42 170.98 174.3 170.14 174.13 169.39C174 168.82 173.97 168.73 173.85 168.3C173.73 167.87 173.66 167.51 173.53 167.02C173.411 166.539 173.318 166.051 173.25 165.56C173.124 164.932 173.216 164.279 173.51 163.71C173.859 163.381 174.372 163.295 174.81 163.49C175.251 163.815 175.579 164.27 175.75 164.79C176.012 165.43 176.187 166.103 176.27 166.79C176.43 167.79 176.74 169.25 176.75 169.55C176.75 169.18 176.68 168.4 176.75 168.05C176.819 167.685 177.073 167.382 177.42 167.25C177.718 167.159 178.033 167.138 178.34 167.19C178.65 167.255 178.925 167.433 179.11 167.69C179.342 168.273 179.47 168.893 179.49 169.52C179.517 168.971 179.611 168.427 179.77 167.9C179.937 167.665 180.181 167.495 180.46 167.42C180.791 167.36 181.129 167.36 181.46 167.42C181.731 167.511 181.968 167.682 182.14 167.91C182.352 168.44 182.48 169 182.52 169.57C182.52 169.71 182.59 169.18 182.81 168.83C182.924 168.491 183.211 168.238 183.562 168.167C183.913 168.097 184.275 168.219 184.512 168.487C184.749 168.756 184.824 169.131 184.71 169.47C184.71 170.12 184.71 170.09 184.71 170.53C184.71 170.97 184.71 171.36 184.71 171.73C184.674 172.315 184.593 172.897 184.47 173.47C184.296 173.977 184.054 174.458 183.75 174.9C183.264 175.44 182.863 176.05 182.56 176.71C182.485 177.038 182.451 177.374 182.46 177.71C182.459 178.021 182.499 178.33 182.58 178.63C182.171 178.673 181.759 178.673 181.35 178.63C180.96 178.57 180.48 177.79 180.35 177.55C180.286 177.421 180.154 177.34 180.01 177.34C179.866 177.34 179.734 177.421 179.67 177.55C179.45 177.93 178.96 178.62 178.62 178.66C177.95 178.74 176.57 178.66 175.48 178.66C175.48 178.66 175.66 177.66 175.25 177.3C174.84 176.94 174.42 176.52 174.11 176.24L173.27 175.28Z" fill="white"/>
<path fill-rule="evenodd" clip-rule="evenodd" d="M173.27 175.28C172.99 174.92 172.64 174.19 172.03 173.28C171.68 172.78 170.82 171.83 170.56 171.34C170.373 171.042 170.318 170.68 170.41 170.34C170.567 169.694 171.18 169.266 171.84 169.34C172.351 169.443 172.82 169.693 173.19 170.06C173.448 170.303 173.686 170.567 173.9 170.85C174.06 171.05 174.1 171.13 174.28 171.36C174.46 171.59 174.58 171.82 174.49 171.48C174.42 170.98 174.3 170.14 174.13 169.39C174 168.82 173.97 168.73 173.85 168.3C173.73 167.87 173.66 167.51 173.53 167.02C173.411 166.539 173.318 166.051 173.25 165.56C173.124 164.932 173.216 164.279 173.51 163.71C173.859 163.381 174.372 163.295 174.81 163.49C175.251 163.815 175.579 164.27 175.75 164.79C176.012 165.43 176.187 166.103 176.27 166.79C176.43 167.79 176.74 169.25 176.75 169.55C176.75 169.18 176.68 168.4 176.75 168.05C176.819 167.685 177.073 167.382 177.42 167.25C177.718 167.159 178.033 167.138 178.34 167.19C178.65 167.255 178.925 167.433 179.11 167.69C179.342 168.273 179.47 168.893 179.49 169.52C179.517 168.971 179.611 168.427 179.77 167.9C179.937 167.665 180.181 167.495 180.46 167.42C180.791 167.36 181.129 167.36 181.46 167.42C181.731 167.511 181.968 167.682 182.14 167.91C182.352 168.44 182.48 169 182.52 169.57C182.52 169.71 182.59 169.18 182.81 168.83C182.924 168.491 183.211 168.238 183.562 168.167C183.913 168.097 184.275 168.219 184.512 168.487C184.749 168.756 184.824 169.131 184.71 169.47C184.71 170.12 184.71 170.09 184.71 170.53C184.71 170.97 184.71 171.36 184.71 171.73C184.674 172.315 184.593 172.897 184.47 173.47C184.296 173.977 184.054 174.458 183.75 174.9C183.264 175.44 182.863 176.05 182.56 176.71C182.485 177.038 182.451 177.374 182.46 177.71C182.459 178.021 182.499 178.33 182.58 178.63C182.171 178.673 181.759 178.673 181.35 178.63C180.96 178.57 180.48 177.79 180.35 177.55C180.286 177.421 180.154 177.34 180.01 177.34C179.866 177.34 179.734 177.421 179.67 177.55C179.45 177.93 178.96 178.62 178.62 178.66C177.95 178.74 176.57 178.66 175.48 178.66C175.48 178.66 175.66 177.66 175.25 177.3C174.84 176.94 174.42 176.52 174.11 176.24L173.27 175.28Z" stroke="#24292E" stroke-width="0.75" stroke-linecap="round" stroke-linejoin="round"/>
<path d="M181.75 175.826V172.374C181.75 172.167 181.582 172 181.375 172C181.168 172 181 172.167 181 172.374V175.826C181 176.033 181.168 176.2 181.375 176.2C181.582 176.2 181.75 176.033 181.75 175.826Z" fill="#24292E"/>
<path d="M179.77 175.825L179.75 172.371C179.749 172.165 179.58 171.999 179.373 172C179.166 172.001 178.999 172.169 179 172.375L179.02 175.829C179.021 176.035 179.19 176.201 179.397 176.2C179.604 176.199 179.771 176.031 179.77 175.825Z" fill="#24292E"/>
<path d="M177 172.379L177.02 175.825C177.021 176.033 177.19 176.201 177.397 176.2C177.604 176.199 177.771 176.029 177.77 175.821L177.75 172.375C177.749 172.167 177.58 171.999 177.373 172C177.166 172.001 176.999 172.171 177 172.379Z" fill="#24292E"/>
</g>
</g>
<g clip-path="url(#clip2_1_2)">
<rect x="224" y="136" width="44" height="90" rx="22" fill="url(#paint0_linear_1_2)"/>
<circle cx="246" cy="158" r="14" fill="#12A17D"/>
<path d="M245.134 179.5C245.519 178.833 246.481 178.833 246.866 179.5L250.33 185.5C250.715 186.167 250.234 187 249.464 187H242.536C241.766 187 241.285 186.167 241.67 185.5L245.134 179.5Z" fill="#12A17D"/>
<path d="M245.134 193.5C245.519 192.833 246.481 192.833 246.866 193.5L250.33 199.5C250.715 200.167 250.234 201 249.464 201H242.536C241.766 201 241.285 200.167 241.67 199.5L245.134 193.5Z" fill="#12A17D"/>
<path d="M245.134 207.5C245.519 206.833 246.481 206.833 246.866 207.5L250.33 213.5C250.715 214.167 250.234 215 249.464 215H242.536C241.766 215 241.285 214.167 241.67 213.5L245.134 207.5Z" fill="#12A17D"/>
<g filter="url(#filter1_d_1_2)">
<path d="M245.27 167.28C244.99 166.92 244.64 166.19 244.03 165.28C243.68 164.78 242.82 163.83 242.56 163.34C242.373 163.042 242.318 162.68 242.41 162.34C242.567 161.694 243.18 161.266 243.84 161.34C244.351 161.443 244.82 161.693 245.19 162.06C245.448 162.303 245.686 162.567 245.9 162.85C246.06 163.05 246.1 163.13 246.28 163.36C246.46 163.59 246.58 163.82 246.49 163.48C246.42 162.98 246.3 162.14 246.13 161.39C246 160.82 245.97 160.73 245.85 160.3C245.73 159.87 245.66 159.51 245.53 159.02C245.411 158.539 245.318 158.051 245.25 157.56C245.124 156.932 245.216 156.279 245.51 155.71C245.859 155.381 246.372 155.295 246.81 155.49C247.251 155.815 247.579 156.27 247.75 156.79C248.012 157.43 248.187 158.103 248.27 158.79C248.43 159.79 248.74 161.25 248.75 161.55C248.75 161.18 248.68 160.4 248.75 160.05C248.819 159.685 249.073 159.382 249.42 159.25C249.718 159.159 250.033 159.138 250.34 159.19C250.65 159.255 250.925 159.433 251.11 159.69C251.342 160.273 251.47 160.893 251.49 161.52C251.517 160.971 251.611 160.427 251.77 159.9C251.937 159.665 252.181 159.495 252.46 159.42C252.791 159.36 253.129 159.36 253.46 159.42C253.731 159.511 253.968 159.682 254.14 159.91C254.352 160.44 254.48 161 254.52 161.57C254.52 161.71 254.59 161.18 254.81 160.83C254.924 160.491 255.211 160.238 255.562 160.167C255.913 160.097 256.275 160.219 256.512 160.487C256.749 160.756 256.824 161.131 256.71 161.47C256.71 162.12 256.71 162.09 256.71 162.53C256.71 162.97 256.71 163.36 256.71 163.73C256.674 164.315 256.593 164.897 256.47 165.47C256.296 165.977 256.054 166.458 255.75 166.9C255.264 167.44 254.863 168.05 254.56 168.71C254.485 169.038 254.451 169.374 254.46 169.71C254.459 170.021 254.499 170.33 254.58 170.63C254.171 170.673 253.759 170.673 253.35 170.63C252.96 170.57 252.48 169.79 252.35 169.55C252.286 169.421 252.154 169.34 252.01 169.34C251.866 169.34 251.734 169.421 251.67 169.55C251.45 169.93 250.96 170.62 250.62 170.66C249.95 170.74 248.57 170.66 247.48 170.66C247.48 170.66 247.66 169.66 247.25 169.3C246.84 168.94 246.42 168.52 246.11 168.24L245.27 167.28Z" fill="white"/>
<path fill-rule="evenodd" clip-rule="evenodd" d="M245.27 167.28C244.99 166.92 244.64 166.19 244.03 165.28C243.68 164.78 242.82 163.83 242.56 163.34C242.373 163.042 242.318 162.68 242.41 162.34C242.567 161.694 243.18 161.266 243.84 161.34C244.351 161.443 244.82 161.693 245.19 162.06C245.448 162.303 245.686 162.567 245.9 162.85C246.06 163.05 246.1 163.13 246.28 163.36C246.46 163.59 246.58 163.82 246.49 163.48C246.42 162.98 246.3 162.14 246.13 161.39C246 160.82 245.97 160.73 245.85 160.3C245.73 159.87 245.66 159.51 245.53 159.02C245.411 158.539 245.318 158.051 245.25 157.56C245.124 156.932 245.216 156.279 245.51 155.71C245.859 155.381 246.372 155.295 246.81 155.49C247.251 155.815 247.579 156.27 247.75 156.79C248.012 157.43 248.187 158.103 248.27 158.79C248.43 159.79 248.74 161.25 248.75 161.55C248.75 161.18 248.68 160.4 248.75 160.05C248.819 159.685 249.073 159.382 249.42 159.25C249.718 159.159 250.033 159.138 250.34 159.19C250.65 159.255 250.925 159.433 251.11 159.69C251.342 160.273 251.47 160.893 251.49 161.52C251.517 160.971 251.611 160.427 251.77 159.9C251.937 159.665 252.181 159.495 252.46 159.42C252.791 159.36 253.129 159.36 253.46 159.42C253.731 159.511 253.968 159.682 254.14 159.91C254.352 160.44 254.48 161 254.52 161.57C254.52 161.71 254.59 161.18 254.81 160.83C254.924 160.491 255.211 160.238 255.562 160.167C255.913 160.097 256.275 160.219 256.512 160.487C256.749 160.756 256.824 161.131 256.71 161.47C256.71 162.12 256.71 162.09 256.71 162.53C256.71 162.97 256.71 163.36 256.71 163.73C256.674 164.315 256.593 164.897 256.47 165.47C256.296 165.977 256.054 166.458 255.75 166.9C255.264 167.44 254.863 168.05 254.56 168.71C254.485 169.038 254.451 169.374 254.46 169.71C254.459 170.021 254.499 170.33 254.58 170.63C254.171 170.673 253.759 170.673 253.35 170.63C252.96 170.57 252.48 169.79 252.35 169.55C252.286 169.421 252.154 169.34 252.01 169.34C251.866 169.34 251.734 169.421 251.67 169.55C251.45 169.93 250.96 170.62 250.62 170.66C249.95 170.74 248.57 170.66 247.48 170.66C247.48 170.66 247.66 169.66 247.25 169.3C246.84 168.94 246.42 168.52 246.11 168.24L245.27 167.28Z" stroke="#24292E" stroke-width="0.75" stroke-linecap="round" stroke-linejoin="round"/>
<path d="M253.75 167.826V164.374C253.75 164.167 253.582 164 253.375 164C253.168 164 253 164.167 253 164.374V167.826C253 168.033 253.168 168.2 253.375 168.2C253.582 168.2 253.75 168.033 253.75 167.826Z" fill="#24292E"/>
<path d="M251.77 167.825L251.75 164.371C251.749 164.165 251.58 163.999 251.373 164C251.166 164.001 250.999 164.169 251 164.375L251.02 167.829C251.021 168.035 251.19 168.201 251.397 168.2C251.604 168.199 251.771 168.031 251.77 167.825Z" fill="#24292E"/>
<path d="M249 164.379L249.02 167.825C249.021 168.033 249.19 168.201 249.397 168.2C249.604 168.199 249.771 168.029 249.77 167.821L249.75 164.375C249.749 164.167 249.58 163.999 249.373 164C249.166 164.001 248.999 164.171 249 164.379Z" fill="#24292E"/>
</g>
</g>
<path d="M146 373C146 359.745 156.745 349 170 349H482C495.255 349 506 359.745 506 373V685C506 698.255 495.255 709 482 709H170C156.745 709 146 698.255 146 685V373Z" fill="#F3F3F5"/>
<path d="M477.125 349V350H482C483.537 350 485.039 350.15 486.49 350.438L486.683 349.458C489.832 350.081 492.759 351.319 495.334 353.043L494.778 353.873C497.287 355.553 499.447 357.713 501.127 360.222L501.956 359.665C503.68 362.24 504.918 365.167 505.541 368.316L504.562 368.51C504.85 369.961 505 371.463 505 373V377.875H506V387.625H505V397.375H506V407.125H505V416.875H506V426.625H505V436.375H506V446.125H505V455.875H506V465.625H505V475.375H506V485.125H505V494.875H506V504.625H505V514.375H506V524.125H505V533.875H506V543.625H505V553.375H506V563.125H505V572.875H506V582.625H505V592.375H506V602.125H505V611.875H506V621.625H505V631.375H506V641.125H505V650.875H506V660.625H505V670.375H506V680.125H505V685C505 686.537 504.85 688.039 504.562 689.49L505.541 689.683C504.918 692.832 503.68 695.759 501.956 698.334L501.127 697.778C499.447 700.287 497.287 702.447 494.778 704.127L495.334 704.956C492.759 706.68 489.832 707.918 486.683 708.541L486.49 707.562C485.039 707.85 483.537 708 482 708H477.125V709H467.375V708H457.625V709H447.875V708H438.125V709H428.375V708H418.625V709H408.875V708H399.125V709H389.375V708H379.625V709H369.875V708H360.125V709H350.375V708H340.625V709H330.875V708H321.125V709H311.375V708H301.625V709H291.875V708H282.125V709H272.375V708H262.625V709H252.875V708H243.125V709H233.375V708H223.625V709H213.875V708H204.125V709H194.375V708H184.625V709H174.875V708H170C168.463 708 166.961 707.85 165.51 707.562L165.316 708.541C162.167 707.918 159.24 706.68 156.665 704.956L157.222 704.127C154.713 702.447 152.553 700.287 150.873 697.778L150.043 698.334C148.319 695.759 147.081 692.832 146.458 689.683L147.438 689.49C147.15 688.039 147 686.537 147 685V680.125H146V670.375H147V660.625H146V650.875H147V641.125H146V631.375H147V621.625H146V611.875H147V602.125H146V592.375H147V582.625H146V572.875H147V563.125H146V553.375H147V543.625H146V533.875H147V524.125H146V514.375H147V504.625H146V494.875H147V485.125H146V475.375H147V465.625H146V455.875H147V446.125H146V436.375H147V426.625H146V416.875H147V407.125H146V397.375H147V387.625H146V377.875H147V373C147 371.463 147.15 369.961 147.438 368.51L146.458 368.316C147.081 365.168 148.319 362.24 150.043 359.665L150.873 360.222C152.553 357.713 154.713 355.553 157.222 353.873L156.665 353.043C159.24 351.319 162.168 350.081 165.316 349.458L165.51 350.438C166.961 350.15 168.463 350 170 350H174.875V349H184.625V350H194.375V349H204.125V350H213.875V349H223.625V350H233.375V349H243.125V350H252.875V349H262.625V350H272.375V349H282.125V350H291.875V349H301.625V350H311.375V349H321.125V350H330.875V349H340.625V350H350.375V349H360.125V350H369.875V349H379.625V350H389.375V349H399.125V350H408.875V349H418.625V350H428.375V349H438.125V350H447.875V349H457.625V350H467.375V349H477.125Z" stroke="#98A3AE" stroke-opacity="0.48" stroke-width="2" stroke-dasharray="10 10"/>
<path d="M201.794 535V523.364H209.05V524.875H203.55V528.057H206.152C207.016 528.057 207.749 528.197 208.351 528.477C208.957 528.758 209.419 529.153 209.737 529.665C210.059 530.176 210.22 530.778 210.22 531.472C210.22 532.165 210.059 532.777 209.737 533.307C209.419 533.837 208.957 534.252 208.351 534.551C207.749 534.85 207.016 535 206.152 535H201.794ZM203.55 533.523H206.152C206.652 533.523 207.074 533.424 207.419 533.227C207.768 533.03 208.031 532.775 208.209 532.46C208.391 532.146 208.482 531.809 208.482 531.449C208.482 530.926 208.281 530.477 207.879 530.102C207.478 529.723 206.902 529.534 206.152 529.534H203.55V533.523ZM211.47 535L211.464 533.528H211.777C212.019 533.528 212.222 533.477 212.385 533.375C212.552 533.269 212.688 533.091 212.794 532.841C212.9 532.591 212.982 532.246 213.038 531.807C213.095 531.364 213.137 530.807 213.163 530.136L213.317 526.273H219.408V535H217.743V527.739H214.891L214.754 530.705C214.72 531.424 214.646 532.053 214.533 532.591C214.423 533.129 214.262 533.578 214.05 533.938C213.838 534.294 213.565 534.561 213.232 534.739C212.898 534.913 212.493 535 212.016 535H211.47ZM225.349 535.176C224.531 535.176 223.817 534.989 223.207 534.614C222.598 534.239 222.124 533.714 221.787 533.04C221.45 532.366 221.281 531.578 221.281 530.676C221.281 529.771 221.45 528.979 221.787 528.301C222.124 527.623 222.598 527.097 223.207 526.722C223.817 526.347 224.531 526.159 225.349 526.159C226.168 526.159 226.882 526.347 227.491 526.722C228.101 527.097 228.575 527.623 228.912 528.301C229.249 528.979 229.418 529.771 229.418 530.676C229.418 531.578 229.249 532.366 228.912 533.04C228.575 533.714 228.101 534.239 227.491 534.614C226.882 534.989 226.168 535.176 225.349 535.176ZM225.355 533.75C225.885 533.75 226.325 533.61 226.673 533.33C227.022 533.049 227.279 532.676 227.446 532.21C227.616 531.744 227.702 531.231 227.702 530.67C227.702 530.114 227.616 529.602 227.446 529.136C227.279 528.667 227.022 528.29 226.673 528.006C226.325 527.722 225.885 527.58 225.355 527.58C224.821 527.58 224.378 527.722 224.026 528.006C223.677 528.29 223.418 528.667 223.247 529.136C223.08 529.602 222.997 530.114 222.997 530.67C222.997 531.231 223.08 531.744 223.247 532.21C223.418 532.676 223.677 533.049 224.026 533.33C224.378 533.61 224.821 533.75 225.355 533.75ZM231.314 535V526.273H233.013V529.932H233.831L236.712 526.273H238.814L235.433 530.517L238.854 535H236.746L234.115 531.511H233.013V535H231.314ZM243.555 537.517V533.528H244.266C244.447 533.362 244.601 533.163 244.726 532.932C244.855 532.701 244.963 532.426 245.05 532.108C245.141 531.79 245.216 531.419 245.277 530.994C245.338 530.566 245.391 530.078 245.436 529.528L245.709 526.273H251.641V533.528H252.982V537.517H251.322V535H245.237V537.517H243.555ZM246.084 533.528H249.982V527.727H247.232L247.05 529.528C246.963 530.445 246.853 531.241 246.72 531.915C246.588 532.585 246.375 533.123 246.084 533.528ZM253.955 535L253.949 533.528H254.261C254.504 533.528 254.706 533.477 254.869 533.375C255.036 533.269 255.172 533.091 255.278 532.841C255.384 532.591 255.466 532.246 255.523 531.807C255.58 531.364 255.621 530.807 255.648 530.136L255.801 526.273H261.892V535H260.227V527.739H257.375L257.239 530.705C257.205 531.424 257.131 532.053 257.017 532.591C256.907 533.129 256.746 533.578 256.534 533.938C256.322 534.294 256.049 534.561 255.716 534.739C255.383 534.913 254.977 535 254.5 535H253.955ZM269.362 535V527.722H267.271C266.775 527.722 266.389 527.837 266.112 528.068C265.836 528.299 265.697 528.602 265.697 528.977C265.697 529.348 265.824 529.648 266.078 529.875C266.336 530.098 266.696 530.21 267.158 530.21H269.857V531.585H267.158C266.514 531.585 265.957 531.479 265.487 531.267C265.021 531.051 264.661 530.746 264.408 530.352C264.158 529.958 264.033 529.492 264.033 528.955C264.033 528.405 264.161 527.932 264.419 527.534C264.68 527.133 265.054 526.822 265.538 526.602C266.027 526.383 266.605 526.273 267.271 526.273H270.959V535H269.362ZM263.635 535L266.095 530.591H267.834L265.374 535H263.635ZM277.455 535V526.273H284.574V535H282.909V527.739H279.108V535H277.455ZM286.845 538.273V526.273H288.504V527.688H288.646C288.745 527.506 288.887 527.295 289.072 527.057C289.258 526.818 289.516 526.61 289.845 526.432C290.175 526.25 290.61 526.159 291.152 526.159C291.857 526.159 292.485 526.337 293.038 526.693C293.591 527.049 294.025 527.562 294.339 528.233C294.658 528.903 294.817 529.71 294.817 530.653C294.817 531.597 294.66 532.405 294.345 533.08C294.031 533.75 293.599 534.267 293.05 534.631C292.5 534.991 291.874 535.17 291.169 535.17C290.639 535.17 290.205 535.081 289.868 534.903C289.535 534.725 289.273 534.517 289.084 534.278C288.894 534.04 288.749 533.828 288.646 533.642H288.544V538.273H286.845ZM288.51 530.636C288.51 531.25 288.599 531.788 288.777 532.25C288.955 532.712 289.213 533.074 289.55 533.335C289.887 533.593 290.3 533.722 290.788 533.722C291.296 533.722 291.72 533.587 292.061 533.318C292.402 533.045 292.66 532.676 292.834 532.21C293.012 531.744 293.101 531.22 293.101 530.636C293.101 530.061 293.014 529.544 292.839 529.085C292.669 528.627 292.411 528.265 292.067 528C291.726 527.735 291.3 527.602 290.788 527.602C290.296 527.602 289.879 527.729 289.538 527.983C289.201 528.237 288.946 528.591 288.771 529.045C288.597 529.5 288.51 530.03 288.51 530.636ZM300.396 535.176C299.578 535.176 298.864 534.989 298.254 534.614C297.644 534.239 297.171 533.714 296.834 533.04C296.497 532.366 296.328 531.578 296.328 530.676C296.328 529.771 296.497 528.979 296.834 528.301C297.171 527.623 297.644 527.097 298.254 526.722C298.864 526.347 299.578 526.159 300.396 526.159C301.214 526.159 301.929 526.347 302.538 526.722C303.148 527.097 303.622 527.623 303.959 528.301C304.296 528.979 304.464 529.771 304.464 530.676C304.464 531.578 304.296 532.366 303.959 533.04C303.622 533.714 303.148 534.239 302.538 534.614C301.929 534.989 301.214 535.176 300.396 535.176ZM300.402 533.75C300.932 533.75 301.372 533.61 301.72 533.33C302.069 533.049 302.326 532.676 302.493 532.21C302.663 531.744 302.749 531.231 302.749 530.67C302.749 530.114 302.663 529.602 302.493 529.136C302.326 528.667 302.069 528.29 301.72 528.006C301.372 527.722 300.932 527.58 300.402 527.58C299.868 527.58 299.425 527.722 299.072 528.006C298.724 528.29 298.464 528.667 298.294 529.136C298.127 529.602 298.044 530.114 298.044 530.67C298.044 531.231 298.127 531.744 298.294 532.21C298.464 532.676 298.724 533.049 299.072 533.33C299.425 533.61 299.868 533.75 300.402 533.75ZM310.122 535.176C309.262 535.176 308.522 534.992 307.901 534.625C307.283 534.254 306.806 533.733 306.469 533.062C306.135 532.388 305.969 531.598 305.969 530.693C305.969 529.799 306.135 529.011 306.469 528.33C306.806 527.648 307.276 527.116 307.878 526.733C308.484 526.35 309.192 526.159 310.003 526.159C310.495 526.159 310.973 526.241 311.435 526.403C311.897 526.566 312.312 526.822 312.679 527.17C313.046 527.519 313.336 527.972 313.548 528.528C313.76 529.081 313.866 529.754 313.866 530.545V531.148H306.929V529.875H312.202C312.202 529.428 312.111 529.032 311.929 528.688C311.747 528.339 311.491 528.064 311.162 527.864C310.836 527.663 310.454 527.562 310.014 527.562C309.537 527.562 309.12 527.68 308.764 527.915C308.412 528.146 308.139 528.449 307.946 528.824C307.757 529.195 307.662 529.598 307.662 530.034V531.028C307.662 531.612 307.764 532.108 307.969 532.517C308.177 532.926 308.467 533.239 308.838 533.455C309.209 533.667 309.643 533.773 310.139 533.773C310.461 533.773 310.755 533.727 311.02 533.636C311.285 533.542 311.514 533.402 311.707 533.216C311.901 533.03 312.048 532.801 312.151 532.528L313.759 532.818C313.63 533.292 313.399 533.706 313.065 534.062C312.736 534.415 312.321 534.689 311.821 534.886C311.325 535.08 310.759 535.176 310.122 535.176ZM315.751 535V526.273H317.45V529.932H318.268L321.149 526.273H323.251L319.871 530.517L323.291 535H321.183L318.553 531.511H317.45V535H315.751ZM324.122 527.739V526.273H331.486V527.739H328.639V535H326.98V527.739H324.122ZM334.947 532.619L338.794 526.273H340.624V535H338.959V528.648L335.129 535H333.283V526.273H334.947V532.619ZM342.908 538.273V526.273H344.567V527.688H344.709C344.807 527.506 344.949 527.295 345.135 527.057C345.321 526.818 345.578 526.61 345.908 526.432C346.237 526.25 346.673 526.159 347.214 526.159C347.919 526.159 348.548 526.337 349.101 526.693C349.654 527.049 350.088 527.562 350.402 528.233C350.72 528.903 350.879 529.71 350.879 530.653C350.879 531.597 350.722 532.405 350.408 533.08C350.093 533.75 349.661 534.267 349.112 534.631C348.563 534.991 347.936 535.17 347.232 535.17C346.701 535.17 346.268 535.081 345.93 534.903C345.597 534.725 345.336 534.517 345.146 534.278C344.957 534.04 344.811 533.828 344.709 533.642H344.607V538.273H342.908ZM344.572 530.636C344.572 531.25 344.661 531.788 344.839 532.25C345.018 532.712 345.275 533.074 345.612 533.335C345.949 533.593 346.362 533.722 346.851 533.722C347.358 533.722 347.783 533.587 348.124 533.318C348.464 533.045 348.722 532.676 348.896 532.21C349.074 531.744 349.163 531.22 349.163 530.636C349.163 530.061 349.076 529.544 348.902 529.085C348.732 528.627 348.474 528.265 348.129 528C347.788 527.735 347.362 527.602 346.851 527.602C346.358 527.602 345.942 527.729 345.601 527.983C345.264 528.237 345.008 528.591 344.834 529.045C344.66 529.5 344.572 530.03 344.572 530.636ZM356.459 535.176C355.641 535.176 354.927 534.989 354.317 534.614C353.707 534.239 353.233 533.714 352.896 533.04C352.559 532.366 352.391 531.578 352.391 530.676C352.391 529.771 352.559 528.979 352.896 528.301C353.233 527.623 353.707 527.097 354.317 526.722C354.927 526.347 355.641 526.159 356.459 526.159C357.277 526.159 357.991 526.347 358.601 526.722C359.211 527.097 359.684 527.623 360.021 528.301C360.358 528.979 360.527 529.771 360.527 530.676C360.527 531.578 360.358 532.366 360.021 533.04C359.684 533.714 359.211 534.239 358.601 534.614C357.991 534.989 357.277 535.176 356.459 535.176ZM356.464 533.75C356.995 533.75 357.434 533.61 357.783 533.33C358.131 533.049 358.389 532.676 358.555 532.21C358.726 531.744 358.811 531.231 358.811 530.67C358.811 530.114 358.726 529.602 358.555 529.136C358.389 528.667 358.131 528.29 357.783 528.006C357.434 527.722 356.995 527.58 356.464 527.58C355.93 527.58 355.487 527.722 355.135 528.006C354.786 528.29 354.527 528.667 354.357 529.136C354.19 529.602 354.107 530.114 354.107 530.67C354.107 531.231 354.19 531.744 354.357 532.21C354.527 532.676 354.786 533.049 355.135 533.33C355.487 533.61 355.93 533.75 356.464 533.75ZM362.423 535V526.273H366.043C367.027 526.273 367.808 526.483 368.384 526.903C368.959 527.32 369.247 527.886 369.247 528.602C369.247 529.114 369.084 529.519 368.759 529.818C368.433 530.117 368.001 530.318 367.463 530.42C367.853 530.466 368.211 530.583 368.537 530.773C368.863 530.958 369.124 531.208 369.321 531.523C369.522 531.837 369.622 532.212 369.622 532.648C369.622 533.11 369.503 533.519 369.264 533.875C369.026 534.227 368.679 534.504 368.224 534.705C367.774 534.902 367.23 535 366.594 535H362.423ZM364.02 533.58H366.594C367.014 533.58 367.344 533.479 367.582 533.278C367.821 533.078 367.94 532.805 367.94 532.46C367.94 532.055 367.821 531.737 367.582 531.506C367.344 531.271 367.014 531.153 366.594 531.153H364.02V533.58ZM364.02 529.909H366.06C366.378 529.909 366.651 529.864 366.878 529.773C367.109 529.682 367.285 529.553 367.406 529.386C367.531 529.216 367.594 529.015 367.594 528.784C367.594 528.447 367.455 528.184 367.179 527.994C366.902 527.805 366.524 527.71 366.043 527.71H364.02V529.909ZM374.026 535.193C373.473 535.193 372.973 535.091 372.526 534.886C372.079 534.678 371.724 534.377 371.463 533.983C371.205 533.589 371.077 533.106 371.077 532.534C371.077 532.042 371.171 531.636 371.361 531.318C371.55 531 371.806 530.748 372.128 530.562C372.45 530.377 372.81 530.237 373.207 530.142C373.605 530.047 374.01 529.975 374.423 529.926C374.946 529.866 375.37 529.816 375.696 529.778C376.022 529.737 376.259 529.67 376.406 529.58C376.554 529.489 376.628 529.341 376.628 529.136V529.097C376.628 528.6 376.488 528.216 376.207 527.943C375.931 527.67 375.518 527.534 374.969 527.534C374.397 527.534 373.946 527.661 373.616 527.915C373.291 528.165 373.065 528.443 372.94 528.75L371.344 528.386C371.533 527.856 371.81 527.428 372.173 527.102C372.541 526.773 372.963 526.534 373.44 526.386C373.918 526.235 374.42 526.159 374.946 526.159C375.295 526.159 375.664 526.201 376.054 526.284C376.448 526.364 376.815 526.511 377.156 526.727C377.501 526.943 377.783 527.252 378.003 527.653C378.223 528.051 378.332 528.568 378.332 529.205V535H376.673V533.807H376.605C376.495 534.027 376.33 534.242 376.111 534.455C375.891 534.667 375.609 534.843 375.264 534.983C374.92 535.123 374.507 535.193 374.026 535.193ZM374.395 533.83C374.865 533.83 375.266 533.737 375.599 533.551C375.937 533.366 376.192 533.123 376.366 532.824C376.545 532.521 376.634 532.197 376.634 531.852V530.727C376.573 530.788 376.455 530.845 376.281 530.898C376.111 530.947 375.916 530.991 375.696 531.028C375.476 531.062 375.262 531.095 375.054 531.125C374.846 531.152 374.671 531.174 374.531 531.193C374.202 531.235 373.901 531.305 373.628 531.403C373.359 531.502 373.143 531.644 372.98 531.83C372.821 532.011 372.741 532.254 372.741 532.557C372.741 532.977 372.897 533.295 373.207 533.511C373.518 533.723 373.914 533.83 374.395 533.83ZM386.51 529.903V531.375H381.783V529.903H386.51ZM382.26 526.273V535H380.595V526.273H382.26ZM387.697 526.273V535H386.038V526.273H387.697ZM391.635 532.619L395.482 526.273H397.311V535H395.646V528.648L391.817 535H389.97V526.273H391.635V532.619ZM403.357 535.176C402.497 535.176 401.756 534.992 401.135 534.625C400.518 534.254 400.04 533.733 399.703 533.062C399.37 532.388 399.203 531.598 399.203 530.693C399.203 529.799 399.37 529.011 399.703 528.33C400.04 527.648 400.51 527.116 401.112 526.733C401.718 526.35 402.427 526.159 403.237 526.159C403.73 526.159 404.207 526.241 404.669 526.403C405.131 526.566 405.546 526.822 405.913 527.17C406.281 527.519 406.571 527.972 406.783 528.528C406.995 529.081 407.101 529.754 407.101 530.545V531.148H400.163V529.875H405.436C405.436 529.428 405.345 529.032 405.163 528.688C404.982 528.339 404.726 528.064 404.396 527.864C404.071 527.663 403.688 527.562 403.249 527.562C402.771 527.562 402.355 527.68 401.999 527.915C401.646 528.146 401.374 528.449 401.18 528.824C400.991 529.195 400.896 529.598 400.896 530.034V531.028C400.896 531.612 400.999 532.108 401.203 532.517C401.411 532.926 401.701 533.239 402.072 533.455C402.444 533.667 402.877 533.773 403.374 533.773C403.696 533.773 403.989 533.727 404.254 533.636C404.519 533.542 404.749 533.402 404.942 533.216C405.135 533.03 405.283 532.801 405.385 532.528L406.993 532.818C406.864 533.292 406.633 533.706 406.3 534.062C405.97 534.415 405.555 534.689 405.055 534.886C404.559 535.08 403.993 535.176 403.357 535.176ZM416.976 537.972V523.364H418.675V537.972H416.976ZM416.976 535.176C416.358 535.176 415.796 535.07 415.288 534.858C414.781 534.642 414.343 534.335 413.976 533.938C413.608 533.54 413.324 533.064 413.124 532.511C412.927 531.958 412.828 531.347 412.828 530.676C412.828 529.998 412.927 529.383 413.124 528.83C413.324 528.277 413.608 527.801 413.976 527.403C414.343 527.006 414.781 526.699 415.288 526.483C415.796 526.267 416.358 526.159 416.976 526.159H417.396V535.176H416.976ZM416.976 533.744H417.214V527.591H416.976C416.567 527.591 416.211 527.674 415.908 527.841C415.605 528.004 415.353 528.229 415.152 528.517C414.951 528.801 414.8 529.129 414.697 529.5C414.599 529.871 414.55 530.263 414.55 530.676C414.55 531.229 414.639 531.739 414.817 532.205C414.995 532.667 415.264 533.04 415.624 533.324C415.983 533.604 416.434 533.744 416.976 533.744ZM418.675 535.176H418.249V526.159H418.675C419.292 526.159 419.855 526.267 420.362 526.483C420.87 526.699 421.305 527.006 421.669 527.403C422.036 527.801 422.319 528.277 422.516 528.83C422.716 529.383 422.817 529.998 422.817 530.676C422.817 531.347 422.716 531.958 422.516 532.511C422.319 533.064 422.036 533.54 421.669 533.938C421.305 534.335 420.87 534.642 420.362 534.858C419.855 535.07 419.292 535.176 418.675 535.176ZM418.675 533.744C419.084 533.744 419.44 533.665 419.743 533.506C420.046 533.343 420.298 533.119 420.499 532.835C420.699 532.547 420.849 532.22 420.947 531.852C421.046 531.481 421.095 531.089 421.095 530.676C421.095 530.127 421.006 529.619 420.828 529.153C420.654 528.684 420.387 528.307 420.027 528.023C419.667 527.735 419.216 527.591 418.675 527.591H418.43V533.744H418.675ZM424.017 535L424.011 533.528H424.324C424.566 533.528 424.769 533.477 424.932 533.375C425.098 533.269 425.235 533.091 425.341 532.841C425.447 532.591 425.528 532.246 425.585 531.807C425.642 531.364 425.684 530.807 425.71 530.136L425.864 526.273H431.955V535H430.29V527.739H427.438L427.301 530.705C427.267 531.424 427.193 532.053 427.08 532.591C426.97 533.129 426.809 533.578 426.597 533.938C426.384 534.294 426.112 534.561 425.778 534.739C425.445 534.913 425.04 535 424.562 535H424.017ZM437.896 535.176C437.078 535.176 436.364 534.989 435.754 534.614C435.144 534.239 434.671 533.714 434.334 533.04C433.997 532.366 433.828 531.578 433.828 530.676C433.828 529.771 433.997 528.979 434.334 528.301C434.671 527.623 435.144 527.097 435.754 526.722C436.364 526.347 437.078 526.159 437.896 526.159C438.714 526.159 439.429 526.347 440.038 526.722C440.648 527.097 441.122 527.623 441.459 528.301C441.796 528.979 441.964 529.771 441.964 530.676C441.964 531.578 441.796 532.366 441.459 533.04C441.122 533.714 440.648 534.239 440.038 534.614C439.429 534.989 438.714 535.176 437.896 535.176ZM437.902 533.75C438.432 533.75 438.872 533.61 439.22 533.33C439.569 533.049 439.826 532.676 439.993 532.21C440.163 531.744 440.249 531.231 440.249 530.67C440.249 530.114 440.163 529.602 439.993 529.136C439.826 528.667 439.569 528.29 439.22 528.006C438.872 527.722 438.432 527.58 437.902 527.58C437.368 527.58 436.925 527.722 436.572 528.006C436.224 528.29 435.964 528.667 435.794 529.136C435.627 529.602 435.544 530.114 435.544 530.67C435.544 531.231 435.627 531.744 435.794 532.21C435.964 532.676 436.224 533.049 436.572 533.33C436.925 533.61 437.368 533.75 437.902 533.75ZM444.638 538.273C444.384 538.273 444.153 538.252 443.945 538.21C443.736 538.172 443.581 538.131 443.479 538.085L443.888 536.693C444.198 536.777 444.475 536.813 444.717 536.801C444.96 536.79 445.174 536.699 445.359 536.528C445.549 536.358 445.715 536.08 445.859 535.693L446.07 535.114L442.876 526.273H444.695L446.905 533.045H446.996L449.206 526.273H451.03L447.433 536.165C447.267 536.619 447.054 537.004 446.797 537.318C446.539 537.636 446.232 537.875 445.876 538.034C445.52 538.193 445.107 538.273 444.638 538.273Z" fill="#363E45"/>
<g filter="url(#filter2_d_1_2)">
<path d="M646.923 187.03C647.098 187.451 646.93 189.045 646 189.414C645.07 189.784 643.882 189.414 643.882 189.414L641.726 185.102L638 188.828V172L649.414 183.414H645.162C645.37 183.814 646.7 186.495 646.923 187.03Z" fill="white"/>
<path fill-rule="evenodd" clip-rule="evenodd" d="M639 174.414V186.414L642 183.414L644.5 188.414C644.5 188.414 645.176 188.63 645.5 188.414C645.824 188.198 646.146 187.764 646 187.414C645.312 185.764 643.5 182.414 643.5 182.414H647L639 174.414Z" fill="#24292E"/>
</g>
<g filter="url(#filter3_d_1_2)">
<path d="M683.27 185.28C682.99 184.92 682.64 184.19 682.03 183.28C681.68 182.78 680.82 181.83 680.56 181.34C680.373 181.042 680.318 180.68 680.41 180.34C680.567 179.694 681.18 179.266 681.84 179.34C682.351 179.443 682.82 179.693 683.19 180.06C683.448 180.303 683.686 180.567 683.9 180.85C684.06 181.05 684.1 181.13 684.28 181.36C684.46 181.59 684.58 181.82 684.49 181.48C684.42 180.98 684.3 180.14 684.13 179.39C684 178.82 683.97 178.73 683.85 178.3C683.73 177.87 683.66 177.51 683.53 177.02C683.411 176.539 683.318 176.051 683.25 175.56C683.124 174.932 683.216 174.279 683.51 173.71C683.859 173.381 684.372 173.295 684.81 173.49C685.251 173.815 685.579 174.27 685.75 174.79C686.012 175.43 686.187 176.103 686.27 176.79C686.43 177.79 686.74 179.25 686.75 179.55C686.75 179.18 686.68 178.4 686.75 178.05C686.819 177.685 687.073 177.382 687.42 177.25C687.718 177.159 688.033 177.138 688.34 177.19C688.65 177.255 688.925 177.433 689.11 177.69C689.342 178.273 689.47 178.893 689.49 179.52C689.517 178.971 689.611 178.427 689.77 177.9C689.937 177.665 690.181 177.495 690.46 177.42C690.791 177.36 691.129 177.36 691.46 177.42C691.731 177.511 691.968 177.682 692.14 177.91C692.352 178.44 692.48 179 692.52 179.57C692.52 179.71 692.59 179.18 692.81 178.83C692.924 178.491 693.211 178.238 693.562 178.167C693.913 178.097 694.275 178.219 694.512 178.487C694.749 178.756 694.824 179.131 694.71 179.47C694.71 180.12 694.71 180.09 694.71 180.53C694.71 180.97 694.71 181.36 694.71 181.73C694.674 182.315 694.593 182.897 694.47 183.47C694.296 183.977 694.054 184.458 693.75 184.9C693.264 185.44 692.863 186.05 692.56 186.71C692.485 187.038 692.451 187.374 692.46 187.71C692.459 188.021 692.499 188.33 692.58 188.63C692.171 188.673 691.759 188.673 691.35 188.63C690.96 188.57 690.48 187.79 690.35 187.55C690.286 187.421 690.154 187.34 690.01 187.34C689.866 187.34 689.734 187.421 689.67 187.55C689.45 187.93 688.96 188.62 688.62 188.66C687.95 188.74 686.57 188.66 685.48 188.66C685.48 188.66 685.66 187.66 685.25 187.3C684.84 186.94 684.42 186.52 684.11 186.24L683.27 185.28Z" fill="white"/>
<path fill-rule="evenodd" clip-rule="evenodd" d="M683.27 185.28C682.99 184.92 682.64 184.19 682.03 183.28C681.68 182.78 680.82 181.83 680.56 181.34C680.373 181.042 680.318 180.68 680.41 180.34C680.567 179.694 681.18 179.266 681.84 179.34C682.351 179.443 682.82 179.693 683.19 180.06C683.448 180.303 683.686 180.567 683.9 180.85C684.06 181.05 684.1 181.13 684.28 181.36C684.46 181.59 684.58 181.82 684.49 181.48C684.42 180.98 684.3 180.14 684.13 179.39C684 178.82 683.97 178.73 683.85 178.3C683.73 177.87 683.66 177.51 683.53 177.02C683.411 176.539 683.318 176.051 683.25 175.56C683.124 174.932 683.216 174.279 683.51 173.71C683.859 173.381 684.372 173.295 684.81 173.49C685.251 173.815 685.579 174.27 685.75 174.79C686.012 175.43 686.187 176.103 686.27 176.79C686.43 177.79 686.74 179.25 686.75 179.55C686.75 179.18 686.68 178.4 686.75 178.05C686.819 177.685 687.073 177.382 687.42 177.25C687.718 177.159 688.033 177.138 688.34 177.19C688.65 177.255 688.925 177.433 689.11 177.69C689.342 178.273 689.47 178.893 689.49 179.52C689.517 178.971 689.611 178.427 689.77 177.9C689.937 177.665 690.181 177.495 690.46 177.42C690.791 177.36 691.129 177.36 691.46 177.42C691.731 177.511 691.968 177.682 692.14 177.91C692.352 178.44 692.48 179 692.52 179.57C692.52 179.71 692.59 179.18 692.81 178.83C692.924 178.491 693.211 178.238 693.562 178.167C693.913 178.097 694.275 178.219 694.512 178.487C694.749 178.756 694.824 179.131 694.71 179.47C694.71 180.12 694.71 180.09 694.71 180.53C694.71 180.97 694.71 181.36 694.71 181.73C694.674 182.315 694.593 182.897 694.47 183.47C694.296 183.977 694.054 184.458 693.75 184.9C693.264 185.44 692.863 186.05 692.56 186.71C692.485 187.038 692.451 187.374 692.46 187.71C692.459 188.021 692.499 188.33 692.58 188.63C692.171 188.673 691.759 188.673 691.35 188.63C690.96 188.57 690.48 187.79 690.35 187.55C690.286 187.421 690.154 187.34 690.01 187.34C689.866 187.34 689.734 187.421 689.67 187.55C689.45 187.93 688.96 188.62 688.62 188.66C687.95 188.74 686.57 188.66 685.48 188.66C685.48 188.66 685.66 187.66 685.25 187.3C684.84 186.94 684.42 186.52 684.11 186.24L683.27 185.28Z" stroke="#24292E" stroke-width="0.75" stroke-linecap="round" stroke-linejoin="round"/>
<path d="M691.75 185.826V182.374C691.75 182.167 691.582 182 691.375 182C691.168 182 691 182.167 691 182.374V185.826C691 186.033 691.168 186.2 691.375 186.2C691.582 186.2 691.75 186.033 691.75 185.826Z" fill="#24292E"/>
<path d="M689.77 185.825L689.75 182.371C689.749 182.165 689.58 181.999 689.373 182C689.166 182.001 688.999 182.169 689 182.375L689.02 185.829C689.021 186.035 689.19 186.201 689.397 186.2C689.604 186.199 689.771 186.031 689.77 185.825Z" fill="#24292E"/>
<path d="M687 182.379L687.02 185.825C687.021 186.033 687.19 186.201 687.397 186.2C687.604 186.199 687.771 186.029 687.77 185.821L687.75 182.375C687.749 182.167 687.58 181.999 687.373 182C687.166 182.001 686.999 182.171 687 182.379Z" fill="#24292E"/>
</g>
<g filter="url(#filter4_d_1_2)">
<path d="M727.38 181.27C727.28 180.9 727.18 180.42 726.97 179.72C726.76 179.02 726.63 178.86 726.5 178.49C726.37 178.12 726.2 177.77 726 177.31C725.817 176.84 725.663 176.359 725.54 175.87C725.457 175.458 725.559 175.03 725.82 174.7C726.179 174.35 726.697 174.217 727.18 174.35C727.559 174.516 727.879 174.791 728.1 175.14C728.395 175.612 728.637 176.115 728.82 176.64C729.102 177.36 729.306 178.107 729.43 178.87L729.52 179.32C729.52 179.32 729.52 178.2 729.52 178.16C729.52 177.16 729.46 176.34 729.52 175.22C729.52 175.09 729.58 174.63 729.6 174.5C729.626 174.07 729.882 173.687 730.27 173.5C730.715 173.3 731.225 173.3 731.67 173.5C732.069 173.678 732.335 174.064 732.36 174.5C732.36 174.61 732.45 175.5 732.45 175.61C732.45 176.61 732.45 177.25 732.45 177.78C732.45 178.01 732.45 179.41 732.45 179.25C732.474 177.93 732.587 176.614 732.79 175.31C732.909 174.901 733.196 174.563 733.58 174.38C734.055 174.193 734.594 174.285 734.98 174.62C735.268 174.936 735.438 175.343 735.46 175.77C735.46 176.18 735.46 176.67 735.46 177.02C735.46 177.89 735.46 178.34 735.46 179.14C735.46 179.14 735.46 179.44 735.46 179.32C735.55 179.04 735.65 178.78 735.73 178.58C735.81 178.38 735.97 177.97 736.09 177.72C736.212 177.482 736.349 177.251 736.5 177.03C736.657 176.776 736.892 176.579 737.17 176.47C737.42 176.373 737.699 176.381 737.944 176.492C738.188 176.603 738.378 176.808 738.47 177.06C738.53 177.424 738.53 177.796 738.47 178.16C738.403 178.719 738.286 179.272 738.12 179.81C737.99 180.26 737.85 181.04 737.78 181.41C737.71 181.78 737.55 182.79 737.42 183.23C737.228 183.755 736.962 184.25 736.63 184.7C736.145 185.24 735.744 185.85 735.44 186.51C735.365 186.838 735.332 187.174 735.34 187.51C735.338 187.821 735.379 188.13 735.46 188.43C735.051 188.474 734.639 188.474 734.23 188.43C733.84 188.37 733.36 187.59 733.23 187.35C733.166 187.221 733.034 187.14 732.89 187.14C732.746 187.14 732.614 187.221 732.55 187.35C732.32 187.73 731.84 188.42 731.5 188.46C730.83 188.54 729.45 188.46 728.36 188.46C728.36 188.46 728.55 187.46 728.13 187.1C727.71 186.74 727.3 186.32 726.99 186.04L726.16 185.12C725.88 184.76 725.53 184.03 724.92 183.12C724.57 182.62 723.92 182.03 723.64 181.54C723.405 181.142 723.337 180.668 723.45 180.22C723.62 179.625 724.211 179.254 724.82 179.36C725.284 179.391 725.722 179.581 726.06 179.9C726.328 180.132 726.578 180.382 726.81 180.65C726.97 180.84 727.01 180.93 727.19 181.16C727.37 181.39 727.49 181.62 727.4 181.28" fill="white"/>
<path d="M727.38 181.27C727.28 180.9 727.18 180.42 726.97 179.72C726.76 179.02 726.63 178.86 726.5 178.49C726.37 178.12 726.2 177.77 726 177.31C725.817 176.84 725.663 176.359 725.54 175.87C725.457 175.458 725.559 175.03 725.82 174.7C726.179 174.35 726.697 174.217 727.18 174.35C727.559 174.516 727.879 174.791 728.1 175.14C728.395 175.612 728.637 176.115 728.82 176.64C729.102 177.36 729.306 178.107 729.43 178.87L729.52 179.32C729.52 179.32 729.52 178.2 729.52 178.16C729.52 177.16 729.46 176.34 729.52 175.22C729.52 175.09 729.58 174.63 729.6 174.5C729.626 174.07 729.882 173.687 730.27 173.5C730.715 173.3 731.225 173.3 731.67 173.5C732.069 173.678 732.335 174.064 732.36 174.5C732.36 174.61 732.45 175.5 732.45 175.61C732.45 176.61 732.45 177.25 732.45 177.78C732.45 178.01 732.45 179.41 732.45 179.25C732.474 177.93 732.587 176.614 732.79 175.31C732.909 174.901 733.196 174.563 733.58 174.38C734.055 174.193 734.594 174.285 734.98 174.62C735.268 174.936 735.438 175.343 735.46 175.77C735.46 176.18 735.46 176.67 735.46 177.02C735.46 177.89 735.46 178.34 735.46 179.14C735.46 179.14 735.46 179.44 735.46 179.32C735.55 179.04 735.65 178.78 735.73 178.58C735.81 178.38 735.97 177.97 736.09 177.72C736.212 177.482 736.349 177.251 736.5 177.03C736.657 176.776 736.892 176.579 737.17 176.47C737.42 176.373 737.699 176.381 737.944 176.492C738.188 176.603 738.378 176.808 738.47 177.06C738.53 177.424 738.53 177.796 738.47 178.16C738.403 178.719 738.286 179.272 738.12 179.81C737.99 180.26 737.85 181.04 737.78 181.41C737.71 181.78 737.55 182.79 737.42 183.23C737.228 183.755 736.962 184.25 736.63 184.7C736.145 185.24 735.744 185.85 735.44 186.51C735.365 186.838 735.332 187.174 735.34 187.51C735.338 187.821 735.379 188.13 735.46 188.43C735.051 188.474 734.639 188.474 734.23 188.43C733.84 188.37 733.36 187.59 733.23 187.35C733.166 187.221 733.034 187.14 732.89 187.14C732.746 187.14 732.614 187.221 732.55 187.35C732.32 187.73 731.84 188.42 731.5 188.46C730.83 188.54 729.45 188.46 728.36 188.46C728.36 188.46 728.55 187.46 728.13 187.1C727.71 186.74 727.3 186.32 726.99 186.04L726.16 185.12C725.88 184.76 725.53 184.03 724.92 183.12C724.57 182.62 723.92 182.03 723.64 181.54C723.405 181.142 723.337 180.668 723.45 180.22C723.62 179.625 724.211 179.254 724.82 179.36C725.284 179.391 725.722 179.581 726.06 179.9C726.328 180.132 726.578 180.382 726.81 180.65C726.97 180.84 727.01 180.93 727.19 181.16C727.37 181.39 727.49 181.62 727.4 181.28" stroke="#24292E" stroke-width="0.75" stroke-linecap="round" stroke-linejoin="round"/>
<path d="M734.75 185.431V181.979C734.75 181.772 734.582 181.605 734.375 181.605C734.168 181.605 734 181.772 734 181.979V185.431C734 185.638 734.168 185.805 734.375 185.805C734.582 185.805 734.75 185.638 734.75 185.431Z" fill="#24292E"/>
<path d="M732.76 185.431L732.75 181.977C732.749 181.771 732.581 181.604 732.374 181.605C732.167 181.606 731.999 181.773 732 181.979L732.01 185.433C732.011 185.639 732.179 185.806 732.386 185.805C732.593 185.804 732.761 185.637 732.76 185.431Z" fill="#24292E"/>
<path d="M730.005 181.98L730.025 185.425C730.026 185.633 730.195 185.801 730.402 185.8C730.609 185.799 730.776 185.629 730.775 185.42L730.755 181.975C730.754 181.767 730.585 181.599 730.378 181.6C730.171 181.601 730.004 181.771 730.005 181.98Z" fill="#24292E"/>
</g>
<rect x="40" y="4" width="132.164" height="30" rx="3" fill="#ECECEC"/>
<rect x="40.5" y="4.5" width="131.164" height="29" rx="2.5" stroke="black" stroke-opacity="0.2"/>
<path d="M51.7969 14V14.8594H47.9375V22H46.9688V14H51.7969ZM52.5479 24.25V16H53.4385V16.9531H53.5479C53.6156 16.849 53.7093 16.7161 53.8291 16.5547C53.9515 16.3906 54.126 16.2448 54.3525 16.1172C54.5817 15.987 54.8916 15.9219 55.2822 15.9219C55.7874 15.9219 56.2327 16.0482 56.6182 16.3008C57.0036 16.5534 57.3044 16.9115 57.5205 17.375C57.7367 17.8385 57.8447 18.3854 57.8447 19.0156C57.8447 19.651 57.7367 20.2018 57.5205 20.668C57.3044 21.1315 57.0049 21.4909 56.6221 21.7461C56.2393 21.9987 55.7979 22.125 55.2979 22.125C54.9124 22.125 54.6038 22.0612 54.3721 21.9336C54.1403 21.8034 53.9619 21.6562 53.8369 21.4922C53.7119 21.3255 53.6156 21.1875 53.5479 21.0781H53.4697V24.25H52.5479ZM53.4541 19C53.4541 19.4531 53.5205 19.8529 53.6533 20.1992C53.7861 20.543 53.9801 20.8125 54.2354 21.0078C54.4906 21.2005 54.8031 21.2969 55.1729 21.2969C55.5583 21.2969 55.8799 21.1953 56.1377 20.9922C56.3981 20.7865 56.5934 20.5104 56.7236 20.1641C56.8564 19.8151 56.9229 19.4271 56.9229 19C56.9229 18.5781 56.8577 18.1979 56.7275 17.8594C56.5999 17.5182 56.4059 17.2487 56.1455 17.0508C55.8877 16.8503 55.5635 16.75 55.1729 16.75C54.7979 16.75 54.4827 16.8451 54.2275 17.0352C53.9723 17.2227 53.7796 17.4857 53.6494 17.8242C53.5192 18.1602 53.4541 18.5521 53.4541 19ZM59.6299 24.25C59.4736 24.25 59.3343 24.237 59.2119 24.2109C59.0895 24.1875 59.0049 24.1641 58.958 24.1406L59.1924 23.3281C59.4163 23.3854 59.6143 23.4063 59.7861 23.3906C59.958 23.375 60.1104 23.2982 60.2432 23.1602C60.3786 23.0247 60.5023 22.8047 60.6143 22.5L60.7861 22.0313L58.5674 16H59.5674L61.2236 20.7812H61.2861L62.9424 16H63.9424L61.3955 22.875C61.2809 23.1849 61.139 23.4414 60.9697 23.6445C60.8005 23.8503 60.6038 24.0026 60.3799 24.1016C60.1585 24.2005 59.9085 24.25 59.6299 24.25ZM65.1592 22V16H69.8779V22H68.9561V16.8594H66.0811V22H65.1592ZM71.5615 22V16H76.2803V22H75.3584V16.8594H72.4834V22H71.5615ZM78.8857 20.6406L81.7764 16H82.8389V22H81.917V17.3594L79.042 22H77.9639V16H78.8857V20.6406ZM84.5273 24.25V16H85.418V16.9531H85.5273C85.5951 16.849 85.6888 16.7161 85.8086 16.5547C85.931 16.3906 86.1055 16.2448 86.332 16.1172C86.5612 15.987 86.8711 15.9219 87.2617 15.9219C87.7669 15.9219 88.2122 16.0482 88.5977 16.3008C88.9831 16.5534 89.2839 16.9115 89.5 17.375C89.7161 17.8385 89.8242 18.3854 89.8242 19.0156C89.8242 19.651 89.7161 20.2018 89.5 20.668C89.2839 21.1315 88.9844 21.4909 88.6016 21.7461C88.2188 21.9987 87.7773 22.125 87.2773 22.125C86.8919 22.125 86.5833 22.0612 86.3516 21.9336C86.1198 21.8034 85.9414 21.6562 85.8164 21.4922C85.6914 21.3255 85.5951 21.1875 85.5273 21.0781H85.4492V24.25H84.5273ZM85.4336 19C85.4336 19.4531 85.5 19.8529 85.6328 20.1992C85.7656 20.543 85.9596 20.8125 86.2148 21.0078C86.4701 21.2005 86.7826 21.2969 87.1523 21.2969C87.5378 21.2969 87.8594 21.1953 88.1172 20.9922C88.3776 20.7865 88.5729 20.5104 88.7031 20.1641C88.8359 19.8151 88.9023 19.4271 88.9023 19C88.9023 18.5781 88.8372 18.1979 88.707 17.8594C88.5794 17.5182 88.3854 17.2487 88.125 17.0508C87.8672 16.8503 87.543 16.75 87.1523 16.75C86.7773 16.75 86.4622 16.8451 86.207 17.0352C85.9518 17.2227 85.7591 17.4857 85.6289 17.8242C85.4987 18.1602 85.4336 18.5521 85.4336 19ZM93.668 22.125C93.1263 22.125 92.651 21.9961 92.2422 21.7383C91.8359 21.4805 91.5182 21.1198 91.2891 20.6562C91.0625 20.1927 90.9492 19.651 90.9492 19.0312C90.9492 18.4062 91.0625 17.8607 91.2891 17.3945C91.5182 16.9284 91.8359 16.5664 92.2422 16.3086C92.651 16.0508 93.1263 15.9219 93.668 15.9219C94.2096 15.9219 94.6836 16.0508 95.0898 16.3086C95.4987 16.5664 95.8164 16.9284 96.043 17.3945C96.2721 17.8607 96.3867 18.4062 96.3867 19.0312C96.3867 19.651 96.2721 20.1927 96.043 20.6562C95.8164 21.1198 95.4987 21.4805 95.0898 21.7383C94.6836 21.9961 94.2096 22.125 93.668 22.125ZM93.668 21.2969C94.0794 21.2969 94.418 21.1914 94.6836 20.9805C94.9492 20.7695 95.1458 20.4922 95.2734 20.1484C95.401 19.8047 95.4648 19.4323 95.4648 19.0312C95.4648 18.6302 95.401 18.2565 95.2734 17.9102C95.1458 17.5638 94.9492 17.2839 94.6836 17.0703C94.418 16.8568 94.0794 16.75 93.668 16.75C93.2565 16.75 92.918 16.8568 92.6523 17.0703C92.3867 17.2839 92.1901 17.5638 92.0625 17.9102C91.9349 18.2565 91.8711 18.6302 91.8711 19.0312C91.8711 19.4323 91.9349 19.8047 92.0625 20.1484C92.1901 20.4922 92.3867 20.7695 92.6523 20.9805C92.918 21.1914 93.2565 21.2969 93.668 21.2969ZM97.7939 22V16H100.247C100.893 16 101.406 16.1458 101.786 16.4375C102.166 16.7292 102.356 17.1146 102.356 17.5937C102.356 17.9583 102.248 18.2409 102.032 18.4414C101.816 18.6393 101.539 18.7734 101.2 18.8438C101.422 18.875 101.636 18.9531 101.845 19.0781C102.056 19.2031 102.23 19.375 102.368 19.5938C102.506 19.8099 102.575 20.0755 102.575 20.3906C102.575 20.6979 102.497 20.9727 102.341 21.2148C102.185 21.457 101.961 21.6484 101.669 21.7891C101.377 21.9297 101.028 22 100.622 22H97.7939ZM98.6689 21.1562H100.622C100.94 21.1562 101.188 21.0807 101.368 20.9297C101.548 20.7786 101.638 20.5729 101.638 20.3125C101.638 20.0026 101.548 19.7591 101.368 19.582C101.188 19.4023 100.94 19.3125 100.622 19.3125H98.6689V21.1562ZM98.6689 18.5156H100.247C100.494 18.5156 100.707 18.4818 100.884 18.4141C101.061 18.3437 101.196 18.2448 101.29 18.1172C101.386 17.987 101.435 17.8333 101.435 17.6562C101.435 17.4036 101.329 17.2057 101.118 17.0625C100.907 16.9167 100.617 16.8438 100.247 16.8438H98.6689V18.5156ZM103.971 22V16H104.893V18.6094H105.502L107.658 16H108.846L106.424 18.8906L108.877 22H107.689L105.721 19.4687H104.893V22H103.971ZM111.645 22.1406C111.264 22.1406 110.919 22.069 110.609 21.9258C110.299 21.7799 110.053 21.5703 109.871 21.2969C109.689 21.0208 109.598 20.6875 109.598 20.2969C109.598 19.9531 109.665 19.6745 109.801 19.4609C109.936 19.2448 110.117 19.0755 110.344 18.9531C110.57 18.8307 110.82 18.7396 111.094 18.6797C111.37 18.6172 111.647 18.5677 111.926 18.5313C112.29 18.4844 112.586 18.4492 112.813 18.4258C113.042 18.3997 113.208 18.3568 113.313 18.2969C113.419 18.237 113.473 18.1328 113.473 17.9844V17.9531C113.473 17.5677 113.367 17.2682 113.156 17.0547C112.948 16.8411 112.632 16.7344 112.207 16.7344C111.767 16.7344 111.422 16.8307 111.172 17.0234C110.922 17.2161 110.746 17.4219 110.645 17.6406L109.77 17.3281C109.926 16.9635 110.134 16.6797 110.395 16.4766C110.658 16.2708 110.944 16.1276 111.254 16.0469C111.566 15.9635 111.874 15.9219 112.176 15.9219C112.368 15.9219 112.59 15.9453 112.84 15.9922C113.092 16.0365 113.336 16.1289 113.57 16.2695C113.807 16.4102 114.004 16.6224 114.16 16.9062C114.316 17.1901 114.395 17.5703 114.395 18.0469V22H113.473V21.1875H113.426C113.363 21.3177 113.259 21.457 113.113 21.6055C112.967 21.7539 112.773 21.8802 112.531 21.9844C112.289 22.0885 111.993 22.1406 111.645 22.1406ZM111.785 21.3125C112.15 21.3125 112.457 21.2409 112.707 21.0977C112.96 20.9544 113.15 20.7695 113.277 20.543C113.408 20.3164 113.473 20.0781 113.473 19.8281V18.9844C113.434 19.0312 113.348 19.0742 113.215 19.1133C113.085 19.1497 112.934 19.1823 112.762 19.2109C112.592 19.237 112.427 19.2604 112.266 19.2812C112.107 19.2995 111.978 19.3151 111.879 19.3281C111.639 19.3594 111.415 19.4102 111.207 19.4805C111.001 19.5482 110.835 19.651 110.707 19.7891C110.582 19.9245 110.52 20.1094 110.52 20.3437C110.52 20.6641 110.638 20.9062 110.875 21.0703C111.115 21.2318 111.418 21.3125 111.785 21.3125ZM119.171 22V16H121.624C122.27 16 122.783 16.1458 123.163 16.4375C123.543 16.7292 123.733 17.1146 123.733 17.5937C123.733 17.9583 123.625 18.2409 123.409 18.4414C123.193 18.6393 122.916 18.7734 122.577 18.8438C122.799 18.875 123.013 18.9531 123.222 19.0781C123.433 19.2031 123.607 19.375 123.745 19.5938C123.883 19.8099 123.952 20.0755 123.952 20.3906C123.952 20.6979 123.874 20.9727 123.718 21.2148C123.562 21.457 123.338 21.6484 123.046 21.7891C122.754 21.9297 122.405 22 121.999 22H119.171ZM120.046 21.1562H121.999C122.317 21.1562 122.565 21.0807 122.745 20.9297C122.925 20.7786 123.015 20.5729 123.015 20.3125C123.015 20.0026 122.925 19.7591 122.745 19.582C122.565 19.4023 122.317 19.3125 121.999 19.3125H120.046V21.1562ZM120.046 18.5156H121.624C121.871 18.5156 122.084 18.4818 122.261 18.4141C122.438 18.3437 122.573 18.2448 122.667 18.1172C122.763 17.987 122.812 17.8333 122.812 17.6562C122.812 17.4036 122.706 17.2057 122.495 17.0625C122.284 16.9167 121.994 16.8438 121.624 16.8438H120.046V18.5156ZM130.879 22.125C130.316 22.125 129.832 21.9922 129.426 21.7266C129.02 21.4609 128.707 21.0951 128.488 20.6289C128.27 20.1628 128.16 19.6302 128.16 19.0312C128.16 18.4219 128.272 17.8841 128.496 17.418C128.723 16.9492 129.038 16.5833 129.441 16.3203C129.848 16.0547 130.322 15.9219 130.863 15.9219C131.285 15.9219 131.665 16 132.004 16.1562C132.342 16.3125 132.62 16.5312 132.836 16.8125C133.052 17.0937 133.186 17.4219 133.238 17.7969H132.316C132.246 17.5234 132.09 17.2812 131.848 17.0703C131.608 16.8568 131.285 16.75 130.879 16.75C130.52 16.75 130.204 16.8437 129.934 17.0312C129.665 17.2161 129.456 17.4779 129.305 17.8164C129.156 18.1523 129.082 18.5469 129.082 19C129.082 19.4635 129.155 19.8672 129.301 20.2109C129.449 20.5547 129.658 20.8216 129.926 21.0117C130.197 21.2018 130.514 21.2969 130.879 21.2969C131.118 21.2969 131.336 21.2552 131.531 21.1719C131.727 21.0885 131.892 20.9688 132.027 20.8125C132.163 20.6562 132.259 20.4687 132.316 20.25H133.238C133.186 20.6042 133.057 20.9232 132.852 21.207C132.648 21.4883 132.379 21.7122 132.043 21.8789C131.71 22.043 131.322 22.125 130.879 22.125ZM137.102 22.125C136.523 22.125 136.025 21.9974 135.605 21.7422C135.189 21.4844 134.867 21.125 134.641 20.6641C134.417 20.2005 134.305 19.6615 134.305 19.0469C134.305 18.4323 134.417 17.8906 134.641 17.4219C134.867 16.9505 135.182 16.5833 135.586 16.3203C135.992 16.0547 136.466 15.9219 137.008 15.9219C137.32 15.9219 137.629 15.974 137.934 16.0781C138.238 16.1823 138.516 16.3516 138.766 16.5859C139.016 16.8177 139.215 17.125 139.363 17.5078C139.512 17.8906 139.586 18.362 139.586 18.9219V19.3125H134.961V18.5156H138.648C138.648 18.1771 138.581 17.875 138.445 17.6094C138.313 17.3437 138.122 17.1341 137.875 16.9805C137.63 16.8268 137.341 16.75 137.008 16.75C136.641 16.75 136.323 16.8411 136.055 17.0234C135.789 17.2031 135.585 17.4375 135.441 17.7266C135.298 18.0156 135.227 18.3255 135.227 18.6562V19.1875C135.227 19.6406 135.305 20.0247 135.461 20.3398C135.62 20.6523 135.84 20.8906 136.121 21.0547C136.402 21.2161 136.729 21.2969 137.102 21.2969C137.344 21.2969 137.563 21.263 137.758 21.1953C137.956 21.125 138.126 21.0208 138.27 20.8828C138.413 20.7422 138.523 20.5677 138.602 20.3594L139.492 20.6094C139.398 20.9115 139.241 21.1771 139.02 21.4062C138.798 21.6328 138.525 21.8099 138.199 21.9375C137.874 22.0625 137.508 22.125 137.102 22.125ZM140.988 22V16H141.91V18.6094H142.52L144.676 16H145.863L143.441 18.8906L145.895 22H144.707L142.738 19.4687H141.91V22H140.988ZM151.615 16V21.1406H152.459V23.9375H151.537V22H146.896V16H147.818V21.1406H150.693V16H151.615ZM154.801 20.6406L157.691 16H158.754V22H157.832V17.3594L154.957 22H153.879V16H154.801V20.6406ZM161.364 20.6406L164.255 16H165.317V22H164.396V17.3594L161.521 22H160.442V16H161.364V20.6406Z" fill="black"/>
<defs>
<filter id="filter0_d_1_2" x="169.191" y="163.012" width="16.7461" height="17.8588" filterUnits="userSpaceOnUse" color-interpolation-filters="sRGB">
<feFlood flood-opacity="0" result="BackgroundImageFix"/>
<feColorMatrix in="SourceAlpha" type="matrix" values="0 0 0 0 0 0 0 0 0 0 0 0 0 0 0 0 0 0 127 0" result="hardAlpha"/>
<feOffset dy="1"/>
<feGaussianBlur stdDeviation="0.4"/>
<feColorMatrix type="matrix" values="0 0 0 0 0 0 0 0 0 0 0 0 0 0 0 0 0 0 0.5 0"/>
<feBlend mode="normal" in2="BackgroundImageFix" result="effect1_dropShadow_1_2"/>
<feBlend mode="normal" in="SourceGraphic" in2="effect1_dropShadow_1_2" result="shape"/>
</filter>
<filter id="filter1_d_1_2" x="241.191" y="155.012" width="16.7461" height="17.8588" filterUnits="userSpaceOnUse" color-interpolation-filters="sRGB">
<feFlood flood-opacity="0" result="BackgroundImageFix"/>
<feColorMatrix in="SourceAlpha" type="matrix" values="0 0 0 0 0 0 0 0 0 0 0 0 0 0 0 0 0 0 127 0" result="hardAlpha"/>
<feOffset dy="1"/>
<feGaussianBlur stdDeviation="0.4"/>
<feColorMatrix type="matrix" values="0 0 0 0 0 0 0 0 0 0 0 0 0 0 0 0 0 0 0.5 0"/>
<feBlend mode="normal" in2="BackgroundImageFix" result="effect1_dropShadow_1_2"/>
<feBlend mode="normal" in="SourceGraphic" in2="effect1_dropShadow_1_2" result="shape"/>
</filter>
<filter id="filter2_d_1_2" x="636.2" y="171.2" width="15.0142" height="21.1785" filterUnits="userSpaceOnUse" color-interpolation-filters="sRGB">
<feFlood flood-opacity="0" result="BackgroundImageFix"/>
<feColorMatrix in="SourceAlpha" type="matrix" values="0 0 0 0 0 0 0 0 0 0 0 0 0 0 0 0 0 0 127 0" result="hardAlpha"/>
<feOffset dy="1"/>
<feGaussianBlur stdDeviation="0.9"/>
<feColorMatrix type="matrix" values="0 0 0 0 0 0 0 0 0 0 0 0 0 0 0 0 0 0 0.65 0"/>
<feBlend mode="normal" in2="BackgroundImageFix" result="effect1_dropShadow_1_2"/>
<feBlend mode="normal" in="SourceGraphic" in2="effect1_dropShadow_1_2" result="shape"/>
</filter>
<filter id="filter3_d_1_2" x="679.191" y="173.012" width="16.7461" height="17.8588" filterUnits="userSpaceOnUse" color-interpolation-filters="sRGB">
<feFlood flood-opacity="0" result="BackgroundImageFix"/>
<feColorMatrix in="SourceAlpha" type="matrix" values="0 0 0 0 0 0 0 0 0 0 0 0 0 0 0 0 0 0 127 0" result="hardAlpha"/>
<feOffset dy="1"/>
<feGaussianBlur stdDeviation="0.4"/>
<feColorMatrix type="matrix" values="0 0 0 0 0 0 0 0 0 0 0 0 0 0 0 0 0 0 0.5 0"/>
<feBlend mode="normal" in2="BackgroundImageFix" result="effect1_dropShadow_1_2"/>
<feBlend mode="normal" in="SourceGraphic" in2="effect1_dropShadow_1_2" result="shape"/>
</filter>
<filter id="filter4_d_1_2" x="722.221" y="172.975" width="17.4682" height="17.6954" filterUnits="userSpaceOnUse" color-interpolation-filters="sRGB">
<feFlood flood-opacity="0" result="BackgroundImageFix"/>
<feColorMatrix in="SourceAlpha" type="matrix" values="0 0 0 0 0 0 0 0 0 0 0 0 0 0 0 0 0 0 127 0" result="hardAlpha"/>
<feOffset dy="1"/>
<feGaussianBlur stdDeviation="0.4"/>
<feColorMatrix type="matrix" values="0 0 0 0 0 0 0 0 0 0 0 0 0 0 0 0 0 0 0.5 0"/>
<feBlend mode="normal" in2="BackgroundImageFix" result="effect1_dropShadow_1_2"/>
<feBlend mode="normal" in="SourceGraphic" in2="effect1_dropShadow_1_2" result="shape"/>
</filter>
<linearGradient id="paint0_linear_1_2" x1="246" y1="136" x2="246" y2="226" gradientUnits="userSpaceOnUse">
<stop stop-color="#A0D9CB"/>
<stop offset="1" stop-color="#A0D9CB" stop-opacity="0.08"/>
</linearGradient>
<clipPath id="clip0_1_2">
<rect width="360" height="360" fill="white" transform="translate(641 349)"/>
</clipPath>
<clipPath id="clip1_1_2">
<rect width="54" height="54" fill="white" transform="translate(146 136)"/>
</clipPath>
<clipPath id="clip2_1_2">
<rect width="44" height="90" fill="white" transform="translate(224 136)"/>
</clipPath>
</defs>
</svg>
